<mxfile host="app.diagrams.net" modified="2024-03-25T03:44:08.636Z" agent="Mozilla/5.0 (X11; Linux x86_64) AppleWebKit/537.36 (KHTML, like Gecko) Chrome/123.0.0.0 Safari/537.36" etag="PLUPM9E6A7lyErRfrMCK" version="24.1.0" type="device">
  <diagram name="PÃ¡gina-1" id="OOK1o17W5cABD4eihVKC">
    <mxGraphModel dx="957" dy="518" grid="0" gridSize="10" guides="1" tooltips="1" connect="1" arrows="1" fold="1" page="1" pageScale="1" pageWidth="827" pageHeight="1169" math="0" shadow="0">
      <root>
        <mxCell id="0" />
        <mxCell id="1" parent="0" />
        <mxCell id="985SWlCvjbFZiy3-7zVP-2" value="" style="shape=umlLifeline;perimeter=lifelinePerimeter;whiteSpace=wrap;html=1;container=1;dropTarget=0;collapsible=0;recursiveResize=0;outlineConnect=0;portConstraint=eastwest;newEdgeStyle={&quot;curved&quot;:0,&quot;rounded&quot;:0};participant=umlActor;size=40;" parent="1" vertex="1">
          <mxGeometry x="303" y="30" width="20" height="313" as="geometry" />
        </mxCell>
        <mxCell id="xoPs_ADwvj_2Q19ii_Ld-1" value=": &lt;u&gt;Administrador&lt;/u&gt;" style="text;html=1;align=center;verticalAlign=middle;whiteSpace=wrap;rounded=0;" vertex="1" parent="1">
          <mxGeometry x="263" y="70" width="100" height="10" as="geometry" />
        </mxCell>
        <mxCell id="xoPs_ADwvj_2Q19ii_Ld-2" value="&lt;u&gt;: Sistema&lt;/u&gt;" style="shape=umlLifeline;perimeter=lifelinePerimeter;whiteSpace=wrap;html=1;container=1;dropTarget=0;collapsible=0;recursiveResize=0;outlineConnect=0;portConstraint=eastwest;newEdgeStyle={&quot;curved&quot;:0,&quot;rounded&quot;:0};" vertex="1" parent="1">
          <mxGeometry x="595" y="30" width="100" height="310" as="geometry" />
        </mxCell>
        <mxCell id="xoPs_ADwvj_2Q19ii_Ld-76" value="" style="html=1;points=[[0,0,0,0,5],[0,1,0,0,-5],[1,0,0,0,5],[1,1,0,0,-5]];perimeter=orthogonalPerimeter;outlineConnect=0;targetShapes=umlLifeline;portConstraint=eastwest;newEdgeStyle={&quot;curved&quot;:0,&quot;rounded&quot;:0};" vertex="1" parent="xoPs_ADwvj_2Q19ii_Ld-2">
          <mxGeometry x="45" y="68" width="10" height="47" as="geometry" />
        </mxCell>
        <mxCell id="xoPs_ADwvj_2Q19ii_Ld-93" value="" style="html=1;points=[[0,0,0,0,5],[0,1,0,0,-5],[1,0,0,0,5],[1,1,0,0,-5]];perimeter=orthogonalPerimeter;outlineConnect=0;targetShapes=umlLifeline;portConstraint=eastwest;newEdgeStyle={&quot;curved&quot;:0,&quot;rounded&quot;:0};" vertex="1" parent="xoPs_ADwvj_2Q19ii_Ld-2">
          <mxGeometry x="45" y="185" width="10" height="48" as="geometry" />
        </mxCell>
        <mxCell id="xoPs_ADwvj_2Q19ii_Ld-70" value="Loop" style="shape=umlFrame;whiteSpace=wrap;html=1;pointerEvents=0;recursiveResize=0;container=1;collapsible=0;width=50;" vertex="1" parent="1">
          <mxGeometry x="134" y="710" width="305" height="208" as="geometry" />
        </mxCell>
        <mxCell id="xoPs_ADwvj_2Q19ii_Ld-75" value="verPaquetesEntregados()" style="html=1;verticalAlign=bottom;endArrow=block;curved=0;rounded=0;entryX=0;entryY=0;entryDx=0;entryDy=5;entryPerimeter=0;" edge="1" parent="1" source="985SWlCvjbFZiy3-7zVP-2" target="xoPs_ADwvj_2Q19ii_Ld-76">
          <mxGeometry relative="1" as="geometry">
            <mxPoint x="317" y="229.71" as="sourcePoint" />
            <mxPoint x="761" y="229.71" as="targetPoint" />
          </mxGeometry>
        </mxCell>
        <mxCell id="xoPs_ADwvj_2Q19ii_Ld-78" value="tabla de resultados" style="html=1;verticalAlign=bottom;endArrow=open;dashed=1;endSize=8;curved=0;rounded=0;exitX=0;exitY=1;exitDx=0;exitDy=-5;" edge="1" source="xoPs_ADwvj_2Q19ii_Ld-76" parent="1" target="985SWlCvjbFZiy3-7zVP-2">
          <mxGeometry relative="1" as="geometry">
            <mxPoint x="594" y="356" as="targetPoint" />
          </mxGeometry>
        </mxCell>
        <mxCell id="xoPs_ADwvj_2Q19ii_Ld-90" value="Condition" style="shape=umlFrame;whiteSpace=wrap;html=1;pointerEvents=0;recursiveResize=0;container=1;collapsible=0;width=170;" vertex="1" parent="1">
          <mxGeometry x="313" y="163" width="332" height="164" as="geometry" />
        </mxCell>
        <mxCell id="xoPs_ADwvj_2Q19ii_Ld-92" value="" style="line;strokeWidth=1;dashed=1;labelPosition=center;verticalLabelPosition=bottom;align=left;verticalAlign=top;spacingLeft=20;spacingTop=15;html=1;whiteSpace=wrap;" vertex="1" parent="xoPs_ADwvj_2Q19ii_Ld-90">
          <mxGeometry y="125" width="334" height="10" as="geometry" />
        </mxCell>
        <mxCell id="xoPs_ADwvj_2Q19ii_Ld-94" value="filtrarPorcliente(nombreCliente)" style="html=1;verticalAlign=bottom;endArrow=block;curved=0;rounded=0;entryX=0;entryY=0;entryDx=0;entryDy=5;" edge="1" target="xoPs_ADwvj_2Q19ii_Ld-93" parent="1" source="985SWlCvjbFZiy3-7zVP-2">
          <mxGeometry relative="1" as="geometry">
            <mxPoint x="313" y="457" as="sourcePoint" />
          </mxGeometry>
        </mxCell>
        <mxCell id="xoPs_ADwvj_2Q19ii_Ld-95" value="datos de paquete de cliente" style="html=1;verticalAlign=bottom;endArrow=open;dashed=1;endSize=8;curved=0;rounded=0;exitX=0;exitY=1;exitDx=0;exitDy=-5;" edge="1" source="xoPs_ADwvj_2Q19ii_Ld-93" parent="1" target="985SWlCvjbFZiy3-7zVP-2">
          <mxGeometry relative="1" as="geometry">
            <mxPoint x="304" y="497" as="targetPoint" />
          </mxGeometry>
        </mxCell>
      </root>
    </mxGraphModel>
  </diagram>
</mxfile>
